<?xml version="1.0" standalone="no"?>
<!DOCTYPE svg PUBLIC "-//W3C//DTD SVG 20010904//EN"
 "http://www.w3.org/TR/2001/REC-SVG-20010904/DTD/svg10.dtd">
<svg version="1.0" xmlns="http://www.w3.org/2000/svg"
 width="48.000000pt" height="48.000000pt" viewBox="0 0 48.000000 48.000000"
 preserveAspectRatio="xMidYMid meet">
<metadata>
Created by potrace 1.16, written by Peter Selinger 2001-2019
</metadata>
<g transform="translate(0.000000,48.000000) scale(0.048000,-0.060000)"
fill="#000000" stroke="none">
<path d="M60 740 c-19 -19 -20 -33 -20 -340 0 -307 1 -321 20 -340 19 -19 33
-20 440 -20 407 0 421 1 440 20 19 19 20 33 20 340 0 307 -1 321 -20 340 -19
19 -33 20 -440 20 -407 0 -421 -1 -440 -20z m295 -215 c23 -22 25 -31 25 -127
-1 -136 -18 -158 -124 -158 l-56 0 0 155 0 155 65 0 c57 0 69 -3 90 -25z m205
0 c0 -23 -3 -25 -51 -25 l-50 0 3 -37 c3 -33 7 -38 31 -41 21 -3 27 -9 27 -28
0 -20 -5 -24 -30 -24 -28 0 -30 -3 -30 -35 l0 -35 50 0 c49 0 50 -1 50 -30 l0
-30 -63 0 c-36 0 -68 5 -75 12 -13 13 -18 279 -5 291 3 4 37 7 75 7 66 0 68
-1 68 -25z m104 -27 c9 -29 20 -75 27 -101 6 -26 14 -46 16 -43 2 2 11 30 19
63 37 143 32 133 64 133 17 0 30 -2 30 -6 0 -11 -62 -240 -72 -266 -13 -36
-45 -46 -68 -22 -10 11 -32 73 -50 139 -17 66 -33 128 -36 138 -4 13 1 17 25
17 28 0 32 -4 45 -52z"/>
</g>
</svg>
